# xmcd
#
# Track frame offsets:
# 150
# 15319
# 31747
# 49643
# 66544
# 84924
# 101547
# 115642
# 132183
# 150326
# 163430
# 175631
# 193482
# 210005
# 226263
#
# Disc length: 3256 seconds
#
#
# Revision: 3
# Processed by: cddbd v1.5.2PL0 Copyright (c) Steve Scherf et al.
# Submitted via: FreeRIP 2.943 
#
DISCID=b10cb60f
DTITLE=Zé Henrique and Gabriel - Tremelê - Tremelê
DYEAR=2005
DGENRE=Sertanejo
TTITLE0=Tremelê
TTITLE1=Instinto Animal
TTITLE2=Dona Do Meu Destino
TTITLE3=Rodeiomania
TTITLE4=Arrasou
TTITLE5=Feminina
TTITLE6=A Pancada Da Paixão
TTITLE7=Mais Um Apaixonado
TTITLE8=Isso É Que É Paixão
TTITLE9=Mala Amarela
TTITLE10=Pinga Na Cabeça
TTITLE11=Quando Digo Que Te Amo
TTITLE12=Jeito Cowboy
TTITLE13=Peão
TTITLE14=Um Louco (Bonus Track)
EXTD=by Flávio Abrahão Biasuz
EXTT0=
EXTT1=
EXTT2=
EXTT3=
EXTT4=
EXTT5=
EXTT6=
EXTT7=
EXTT8=
EXTT9=
EXTT10=
EXTT11=
EXTT12=
EXTT13=
EXTT14=
PLAYORDER=
